<svg width="23" height="21" viewBox="0 0 23 21" fill="none" xmlns="http://www.w3.org/2000/svg">
<path d="M12.5324 20.5927L12.5346 20.5916C13.6604 19.9856 16.2363 18.4762 18.5444 16.2119C20.8417 13.9582 23 10.83 23 7C23 3.62617 20.7153 0 16.5 0C14.3625 0 12.6687 1.10459 11.5 2.84818C10.3313 1.10459 8.63752 0 6.5 0C2.28474 0 0 3.62617 0 7C0 10.83 2.15829 13.9582 4.45563 16.2119C6.76515 18.4776 9.34284 19.9875 10.4676 20.5927L10.5031 20.612C10.6516 20.6926 10.8667 20.8094 11.1403 20.8641C11.3669 20.9094 11.6331 20.9094 11.8597 20.8641C12.1333 20.8094 12.3484 20.6926 12.4969 20.612L12.5324 20.5927Z" fill="#FC5185"/>
</svg>
