<svg width="48" height="48" viewBox="0 0 48 48" fill="none" xmlns="http://www.w3.org/2000/svg">
<g opacity="0.8">
<path fill-rule="evenodd" clip-rule="evenodd" d="M28.7701 30.8915C23.4696 35.1368 15.7107 34.8027 10.7972 29.8891C5.52509 24.617 5.52509 16.0693 10.7972 10.7972C16.0692 5.52512 24.617 5.52512 29.889 10.7972C34.8026 15.7108 35.1367 23.4696 30.8915 28.7702L41.2027 39.0814C41.7885 39.6672 41.7885 40.617 41.2027 41.2027C40.6169 41.7885 39.6672 41.7885 39.0814 41.2027L28.7701 30.8915ZM12.9185 27.7678C8.81798 23.6673 8.81798 17.019 12.9185 12.9185C17.019 8.81801 23.6672 8.81801 27.7677 12.9185C31.8652 17.016 31.8682 23.6575 27.7768 27.7587C27.7737 27.7617 27.7707 27.7647 27.7677 27.7677C27.7647 27.7707 27.7617 27.7737 27.7587 27.7768C23.6575 31.8683 17.016 31.8653 12.9185 27.7678Z" fill="#F04785"/>
</g>
</svg>
