<svg width="516" height="535" viewBox="0 0 516 535" fill="none" xmlns="http://www.w3.org/2000/svg">
<path d="M220.092 186.157L220.617 186.558L221.045 186.055C286.586 109.241 366.602 105.805 417.922 133.486C443.601 147.337 462.072 168.958 468.032 193.066C473.983 217.138 467.491 243.802 443.029 267.863C402.708 305.963 388.748 337.298 388.103 363.198C387.458 389.09 400.128 409.366 412.631 425.314C415.627 429.137 418.619 432.717 421.417 436.065L421.781 436.5C424.687 439.977 427.367 443.196 429.629 446.192C431.892 449.19 433.714 451.937 434.914 454.465C436.115 456.995 436.667 459.252 436.457 461.288C436.046 465.279 432.631 468.849 423.904 471.989C415.284 475.091 401.744 477.673 381.619 479.882C375.002 466.859 366.213 459.334 355.715 455.704C345.131 452.045 332.891 452.375 319.538 454.878C306.183 457.381 291.639 462.075 276.426 467.21C274.33 467.917 272.221 468.633 270.101 469.353C256.814 473.863 243.069 478.529 229.151 482.253C196.864 490.893 163.806 494.42 133.697 479.237C103.599 464.059 76.2716 430.092 55.6742 363.32C33.9276 268.083 20.6579 199.661 16.1633 153.021C13.9154 129.696 13.8675 111.864 16.0326 98.8678C18.2 85.8576 22.5598 77.8393 28.9898 73.9215C35.4183 70.0047 44.1323 70.0549 55.334 73.7149C66.523 77.3708 80.0504 84.5827 95.9744 94.7641C123.733 112.512 158.638 139.194 200.93 171.521C207.157 176.281 213.544 181.163 220.092 186.157Z" fill="white" stroke="#F2785C" stroke-width="1.39489"/>
<circle cx="197.5" cy="250.5" r="147.5" fill="url(#paint0_radial_1193_723)"/>
<defs>
<radialGradient id="paint0_radial_1193_723" cx="0" cy="0" r="1" gradientUnits="userSpaceOnUse" gradientTransform="translate(197.5 250.5) rotate(90) scale(147.5)">
<stop stop-color="#EF9833"/>
<stop offset="1" stop-color="#D96907" stop-opacity="0.5"/>
</radialGradient>
</defs>
</svg>
