<svg width="267" height="285" viewBox="0 0 267 285" fill="none" xmlns="http://www.w3.org/2000/svg">
<path d="M93.1911 259.25C72.577 272.828 44.8582 267.125 31.2794 246.511C17.7006 225.897 23.4038 198.178 44.0178 184.6C54.384 177.771 78.7964 166.861 102.339 160.263C114.109 156.965 125.625 154.755 135.038 154.662C144.492 154.568 151.633 156.609 154.913 161.588C158.199 166.578 157.443 174.255 153.922 183.364C150.416 192.432 144.235 202.749 136.958 212.866C122.397 233.11 103.54 252.432 93.1911 259.25Z" fill="url(#paint0_radial_537_1892)" stroke="#F2785C"/>
<path d="M44.4487 183.901C20.2244 179.157 4.43267 155.673 9.17681 131.449C13.921 107.224 37.4045 91.4327 61.6288 96.1768C73.8105 98.5625 98.8773 107.871 120.303 119.65C131.014 125.539 140.782 132.027 147.567 138.552C154.381 145.106 158.048 151.564 156.903 157.415C155.754 163.279 149.838 168.229 140.945 172.265C132.091 176.283 120.454 179.318 108.174 181.443C83.6026 185.697 56.6105 186.283 44.4487 183.901Z" fill="url(#paint1_radial_537_1892)" stroke="#F2785C"/>
<path d="M48.1133 101.295C34.0755 80.9907 39.1555 53.151 59.4598 39.1132C79.7641 25.0755 107.604 30.1555 121.642 50.4598C128.701 60.6702 140.156 84.8317 147.28 108.221C150.841 119.913 153.309 131.378 153.614 140.786C153.919 150.236 152.039 157.42 147.135 160.811C142.22 164.209 134.528 163.624 125.342 160.308C116.197 157.007 105.745 151.059 95.467 144.011C74.9009 129.907 55.1609 111.489 48.1133 101.295Z" fill="url(#paint2_radial_537_1892)" stroke="#F2785C"/>
<path d="M103.447 52.1978C103.668 27.5143 123.857 7.68351 148.54 7.90441C173.224 8.1253 193.054 28.3143 192.833 52.9978C192.722 65.4104 188.169 91.7593 180.519 114.982C176.695 126.591 172.109 137.384 166.938 145.25C161.745 153.15 156.069 157.94 150.107 157.887C144.133 157.833 138.181 152.925 132.583 144.923C127.009 136.956 121.891 126.074 117.55 114.392C108.862 91.0169 103.336 64.5901 103.447 52.1978Z" fill="url(#paint3_radial_537_1892)" stroke="#F2785C"/>
<path d="M166.578 37.7428C180.385 17.2814 208.166 11.8875 228.627 25.6952C249.089 39.503 254.483 67.2836 240.675 87.745C233.731 98.0345 215.391 117.493 196.195 132.636C186.599 140.206 176.818 146.675 168.164 150.381C159.473 154.103 152.097 154.964 147.154 151.629C142.202 148.287 139.948 140.909 139.696 131.147C139.445 121.427 141.184 109.527 144.011 97.3898C149.668 73.1027 159.645 48.0154 166.578 37.7428Z" fill="url(#paint4_radial_537_1892)" stroke="#F2785C"/>
<defs>
<radialGradient id="paint0_radial_537_1892" cx="0" cy="0" r="1" gradientUnits="userSpaceOnUse" gradientTransform="translate(93.8963 205.264) rotate(146.626) scale(75.4812 45.1952)">
<stop stop-color="#EF9833"/>
<stop offset="1" stop-color="#EF9833" stop-opacity="0.5"/>
</radialGradient>
<radialGradient id="paint1_radial_537_1892" cx="0" cy="0" r="1" gradientUnits="userSpaceOnUse" gradientTransform="translate(82.7601 145.859) rotate(-168.919) scale(75.4812 45.1952)">
<stop stop-color="#EF9833"/>
<stop offset="1" stop-color="#EF9833" stop-opacity="0.5"/>
</radialGradient>
<radialGradient id="paint2_radial_537_1892" cx="0" cy="0" r="1" gradientUnits="userSpaceOnUse" gradientTransform="translate(102.101 100.789) rotate(-124.659) scale(75.4812 45.1952)">
<stop stop-color="#EF9833"/>
<stop offset="1" stop-color="#EF9833" stop-opacity="0.5"/>
</radialGradient>
<radialGradient id="paint3_radial_537_1892" cx="0" cy="0" r="1" gradientUnits="userSpaceOnUse" gradientTransform="translate(147.869 82.8826) rotate(-89.4873) scale(75.4812 45.1952)">
<stop stop-color="#EF9833"/>
<stop offset="1" stop-color="#EF9833" stop-opacity="0.5"/>
</radialGradient>
<radialGradient id="paint4_radial_537_1892" cx="0" cy="0" r="1" gradientUnits="userSpaceOnUse" gradientTransform="translate(186.685 87.8485) rotate(-55.9878) scale(75.4812 45.1952)">
<stop stop-color="#EF9833"/>
<stop offset="1" stop-color="#EF9833" stop-opacity="0.5"/>
</radialGradient>
</defs>
</svg>
